HIERARCHY
ROOT Hips
{
	OFFSET 0.000000 0.000000 0.000000
	CHANNELS 6 Xposition Yposition Zposition Zrotation Yrotation Xrotation 
	JOINT LHipJoint
	{
		OFFSET 0.000000 0.000000 0.000000
		CHANNELS 3 Zrotation Yrotation Xrotation
		JOINT LeftUpLeg
		{
			OFFSET 1.363060 -1.794630 0.839290
			CHANNELS 3 Zrotation Yrotation Xrotation
			JOINT LeftLeg
			{
				OFFSET 2.448110 -6.726130 0.000000
				CHANNELS 3 Zrotation Yrotation Xrotation
				JOINT LeftFoot
				{
					OFFSET 2.562200 -7.039590 0.000000
					CHANNELS 3 Zrotation Yrotation Xrotation
					JOINT LeftToeBase
					{
						OFFSET 0.157640 -0.433110 2.322550
						CHANNELS 3 Zrotation Yrotation Xrotation
						End Site
						{
							OFFSET 0.000000 0.000000 0.000000
						}
					}
				}
			}
		}
	}
	JOINT RHipJoint
	{
		OFFSET 0.000000 0.000000 0.000000
		CHANNELS 3 Zrotation Yrotation Xrotation
		JOINT RightUpLeg
		{
			OFFSET -1.305520 -1.794630 0.839290
			CHANNELS 3 Zrotation Yrotation Xrotation
			JOINT RightLeg
			{
				OFFSET -2.542530 -6.985550 0.000000
				CHANNELS 3 Zrotation Yrotation Xrotation
				JOINT RightFoot
				{
					OFFSET -2.568260 -7.056230 0.000000
					CHANNELS 3 Zrotation Yrotation Xrotation
					JOINT RightToeBase
					{
						OFFSET -0.164730 -0.452590 2.363150
						CHANNELS 3 Zrotation Yrotation Xrotation
						End Site
						{
							OFFSET 0.000000 0.000000 0.000000
						}
					}
				}
			}
		}
	}
}
MOTION
Frames: 16
Frame Time: 0.008333
1.902668 16.727424 1.855361 -178.012773 -83.749029 -179.474905 -10.481741 2.555031 0.335572 -11.807870 5.929440 -1.953413 -1.971652 0.546752 24.959809 2.350705 10.242977 -21.232499 -2.951400 -0.000000 -31.511700 9.891090 -0.300154 -0.971376 6.320282 -9.686656 -33.267311 0.572494 -3.477938 52.239018 -3.504272 -15.491346 -17.815052 2.339701 -0.000000 -6.488500
1.642329 16.747380 1.821491 -175.751284 -84.463605 178.301125 -10.516360 2.675733 0.406198 -11.243334 5.909809 -0.313920 -1.936999 0.484564 23.417273 2.229344 9.853739 -20.207646 -2.648200 -0.000001 -33.833700 9.684683 -0.214254 -0.916776 7.308730 -10.068904 -34.185395 0.828263 -3.280692 49.410132 -3.521711 -15.122723 -17.716157 2.233500 0.000000 -7.381300
1.380076 16.765124 1.785371 -172.983946 -85.201381 175.544719 -10.549226 2.807658 0.466418 -10.649974 5.918463 1.302206 -1.897584 0.441092 21.953911 2.090023 9.401062 -19.032960 -2.315800 0.000000 -36.268300 9.484979 -0.147245 -0.860849 8.265708 -10.479183 -34.926839 1.103005 -3.060782 46.345978 -3.499641 -14.571738 -17.522770 2.080900 0.000000 -8.768000
1.115886 16.780713 1.747141 -169.357921 -85.959153 171.901767 -10.579703 2.948546 0.514165 -10.023426 5.956504 2.887301 -1.852865 0.417353 20.587637 1.934585 8.885308 -17.708182 -1.962000 0.000000 -38.777600 9.294433 -0.097337 -0.799739 9.185821 -10.908945 -35.493996 1.393181 -2.814470 43.061148 -3.443474 -13.890906 -17.223452 1.890100 -0.000000 -10.716000
0.849561 16.794393 1.707080 -164.117952 -86.733571 166.620581 -10.608675 3.093853 0.548019 -9.357987 6.021326 4.431153 -1.800668 0.413128 19.336209 1.766567 8.313688 -16.235880 -1.597800 0.000000 -41.351901 9.112592 -0.064483 -0.728408 10.065379 -11.346723 -35.891514 1.693855 -2.538154 39.571059 -3.362112 -13.147948 -16.808842 1.671200 0.000000 -13.245500
0.581072 16.806518 1.665526 -155.574348 -87.520424 158.015047 -10.642750 3.236033 0.566735 -8.650469 6.106157 5.922780 -1.737025 0.426803 18.215961 1.590895 7.699701 -14.620024 -1.235400 0.000000 -44.005100 8.930991 -0.052102 -0.640872 10.897437 -11.778410 -36.123741 1.997665 -2.228432 35.892200 -3.266868 -12.418926 -16.271174 1.433901 0.000000 -16.336200
0.310575 16.817439 1.622822 -139.793726 -88.295377 142.153322 -10.711068 3.369683 0.569186 -7.912628 6.205412 7.349780 -1.659399 0.456731 17.239230 1.413574 7.063538 -12.867585 -0.887500 -0.000000 -46.757800 8.717818 -0.065497 -0.533103 11.659635 -12.188112 -36.195600 2.291931 -1.878647 32.053027 -3.171443 -11.774356 -15.640486 1.193900 0.000000 -19.652300
0.037920 16.827610 1.579214 -110.328612 -88.908426 112.594866 -10.874364 3.525164 0.559434 -7.192980 6.331639 8.693926 -1.584035 0.512059 16.401487 1.242053 6.439132 -10.985551 -0.564500 0.000000 -49.661500 8.431981 -0.084851 -0.413772 12.313543 -12.540866 -36.105297 2.545377 -1.467427 28.090289 -3.086750 -11.272424 -14.915201 0.954999 0.000000 -23.130100
-0.236605 16.837304 1.534829 -74.426218 -89.080935 76.583174 -11.073858 3.750486 0.543348 -6.497737 6.501626 9.953301 -1.536397 0.610683 15.689514 1.086742 5.869229 -8.991301 -0.273901 0.000000 -52.751200 8.176966 -0.042445 -0.300023 12.897832 -12.773378 -35.832327 2.744118 -0.986602 24.054767 -3.021316 -10.948305 -14.129172 0.725800 -0.000000 -26.380300
-0.509201 16.848871 1.491816 -38.640301 -88.329983 40.511657 -11.226228 4.033799 0.648930 -5.544506 5.920412 11.201215 -1.487881 0.791306 15.387106 0.955317 5.316856 -7.049092 -0.034600 -0.000000 -56.024500 8.064170 0.108843 -0.490430 13.725832 -14.135780 -35.247131 2.989561 -0.470683 19.959547 -2.886376 -10.471945 -13.301101 0.519000 0.000000 -29.411800
-0.787607 16.858097 1.445787 -32.194294 -87.807975 33.904266 -11.250529 4.218625 0.597221 -4.752670 6.040987 12.367681 -1.397600 0.917243 14.963001 0.848362 4.889304 -4.843373 0.185700 -0.000000 -59.578500 8.018198 0.185496 -0.339342 14.222268 -14.164651 -34.627402 3.132802 0.020688 15.998677 -2.875695 -10.579698 -12.497668 0.316600 0.000000 -31.827699
-1.067952 16.866951 1.398834 -28.066638 -87.287703 29.588579 -11.263873 4.385463 0.531317 -3.994687 6.121019 13.499912 -1.291047 1.053751 14.660587 0.770967 4.566053 -2.520883 0.379000 0.000000 -63.350400 7.994058 0.265901 -0.179074 14.576026 -14.082164 -33.856943 3.219108 0.501859 12.233429 -2.897093 -10.888979 -11.755703 0.129200 -0.000000 -33.702100
-1.350299 16.875256 1.351047 -25.061645 -86.800751 26.361839 -11.263615 4.538392 0.456640 -3.298844 6.149738 14.612239 -1.172014 1.199803 14.462901 0.725142 4.355823 -0.075155 0.554800 0.000000 -67.262701 7.993816 0.352460 -0.023314 14.779412 -13.911333 -32.975221 3.249663 0.948190 8.804387 -2.941587 -11.327711 -11.129253 -0.034000 0.000000 -35.041700
-1.634886 16.882753 1.302583 -22.662928 -86.362017 23.709720 -11.250184 4.679752 0.377995 -2.675185 6.128230 15.704027 -1.043360 1.353251 14.362082 0.709786 4.242523 2.501576 0.721200 0.000000 -71.210100 8.014383 0.441824 0.120578 14.838427 -13.657276 -32.021288 3.232360 1.338584 5.831190 -3.002706 -11.829036 -10.673474 -0.158200 0.000000 -35.860200
-1.921861 16.889191 1.253818 -20.636681 -85.979323 21.402749 -11.226771 4.811573 0.300708 -2.122697 6.062682 16.766231 -0.907806 1.511248 14.355543 0.722274 4.193594 5.214984 0.881300 -0.000000 -75.033000 8.049591 0.527795 0.249118 14.771699 -13.322354 -31.034561 3.179938 1.658278 3.403245 -3.073203 -12.327497 -10.421701 -0.230400 0.000001 -36.227800
-2.211212 16.894128 1.205166 -18.888903 -85.653061 19.354708 -11.198422 4.934086 0.227839 -1.632160 5.956349 17.788938 -0.768071 1.670527 14.442124 0.759662 4.168685 8.061651 1.031100 -0.000001 -78.546100 8.092162 0.605181 0.362636 14.597000 -12.890962 -30.038781 3.104032 1.900803 1.568057 -3.150601 -12.788562 -10.386650 -0.242000 -0.000000 -36.203500
